<?xml version="1.0" encoding="UTF-8"?>
<!DOCTYPE svg PUBLIC "-//W3C//DTD SVG 1.1//EN" "http://www.w3.org/Graphics/SVG/1.1/DTD/svg11.dtd">
<svg xmlns="http://www.w3.org/2000/svg" version="1.1" width="500px" height="500px" style="shape-rendering:geometricPrecision; text-rendering:geometricPrecision; image-rendering:optimizeQuality; fill-rule:evenodd; clip-rule:evenodd" xmlns:xlink="http://www.w3.org/1999/xlink">
<g><path style="opacity:0.871" fill="#0a0a0a" d="M 373.5,9.5 C 390.507,29.1789 402.007,51.8456 408,77.5C 411.614,99.6643 404.781,117.831 387.5,132C 372.15,143.015 355.817,152.515 338.5,160.5C 332.601,149.705 326.434,139.039 320,128.5C 316.692,123.692 313.192,119.025 309.5,114.5C 340.031,100.467 359.531,77.1336 368,44.5C 370.812,32.9819 372.645,21.3153 373.5,9.5 Z"/></g>
<g><path style="opacity:1" fill="#999999" d="M 375.5,18.5 C 390.618,36.0753 400.452,56.4086 405,79.5C 407.627,100.746 400.461,117.913 383.5,131C 369.638,140.346 355.138,148.513 340,155.5C 332.26,141.688 323.76,128.355 314.5,115.5C 345.099,100.362 364.266,76.0284 372,42.5C 373.494,34.5374 374.661,26.5374 375.5,18.5 Z"/></g>
<g><path style="opacity:0.785" fill="#0b0b0b" d="M 124.5,9.5 C 126.564,23.5218 129.397,37.5218 133,51.5C 138.584,69.1774 148.084,84.3441 161.5,97C 170.398,103.611 179.731,109.444 189.5,114.5C 184.087,121.658 178.921,128.991 174,136.5C 169.738,144.697 165.238,152.697 160.5,160.5C 143.183,152.515 126.85,143.015 111.5,132C 89.5133,112.492 84.0133,88.9917 95,61.5C 102.54,42.7415 112.373,25.4081 124.5,9.5 Z"/></g>
<g><path style="opacity:1" fill="#999999" d="M 121.5,18.5 C 122.725,19.1522 123.392,20.3189 123.5,22C 125.97,51.4529 137.304,76.7862 157.5,98C 165.885,104.854 174.885,110.688 184.5,115.5C 175.24,128.355 166.74,141.688 159,155.5C 143.782,148.617 129.282,140.45 115.5,131C 95.3602,114.97 88.8602,94.4702 96,69.5C 98.1816,63.1045 100.515,56.7712 103,50.5C 108.938,39.6149 115.104,28.9482 121.5,18.5 Z"/></g>
<g><path style="opacity:0.821" fill="#0b0b0b" d="M 247.5,85.5 C 249.655,85.372 251.655,85.872 253.5,87C 290.279,109.078 314.945,140.411 327.5,181C 302.073,187.407 276.24,190.241 250,189.5C 227.641,189.915 205.475,188.082 183.5,184C 178.92,183.289 174.587,181.956 170.5,180C 184.719,139.001 210.386,107.501 247.5,85.5 Z"/></g>
<g><path style="opacity:1" fill="#999999" d="M 212.5,184.5 C 205.036,182.983 197.37,181.983 189.5,181.5C 189.167,181.5 188.833,181.5 188.5,181.5C 186.162,179.96 183.495,179.294 180.5,179.5C 178.833,179.5 177.167,179.5 175.5,179.5C 188.352,139.639 213.019,109.306 249.5,88.5C 285.646,109.132 310.146,139.132 323,178.5C 286.393,186.6 249.56,188.6 212.5,184.5 Z"/></g>
<g><path style="opacity:1" fill="#5b5b5b" d="M 180.5,179.5 C 183.495,179.294 186.162,179.96 188.5,181.5C 185.572,181.435 182.905,180.768 180.5,179.5 Z"/></g>
<g><path style="opacity:1" fill="#616161" d="M 189.5,181.5 C 197.37,181.983 205.036,182.983 212.5,184.5C 204.568,184.508 196.902,183.508 189.5,181.5 Z"/></g>
<g><path style="opacity:0.846" fill="#0d0d0d" d="M 353.5,188.5 C 356.726,191.93 359.226,195.93 361,200.5C 367.454,215.861 373.121,231.528 378,247.5C 380.456,255.324 381.956,263.324 382.5,271.5C 383.118,275.988 381.785,279.655 378.5,282.5C 373.833,278.167 369.167,273.833 364.5,269.5C 361.888,270.779 359.555,272.445 357.5,274.5C 355.323,260.813 352.156,247.146 348,233.5C 343.277,220.668 337.777,208.168 331.5,196C 331.905,195.055 332.572,194.388 333.5,194C 340.377,192.451 347.044,190.617 353.5,188.5 Z"/></g>
<g><path style="opacity:1" fill="#979797" d="M 353.5,193.5 C 366.037,218.278 374.704,244.445 379.5,272C 379.506,274.3 379.006,276.466 378,278.5C 373.986,272.808 369.152,268.308 363.5,265C 362.315,266.353 360.981,267.52 359.5,268.5C 357.911,258.789 356.078,249.122 354,239.5C 349.132,225.263 343.299,211.43 336.5,198C 339.316,195.621 342.649,194.455 346.5,194.5C 348.903,194.552 351.236,194.219 353.5,193.5 Z"/></g>
<g><path style="opacity:1" fill="#616161" d="M 353.5,193.5 C 351.236,194.219 348.903,194.552 346.5,194.5C 348.137,193.62 349.97,192.954 352,192.5C 352.765,192.57 353.265,192.903 353.5,193.5 Z"/></g>
<g><path style="opacity:0.848" fill="#0e0e0e" d="M 143.5,188.5 C 150.815,190.329 158.148,192.162 165.5,194C 166.428,194.388 167.095,195.055 167.5,196C 154.3,220.766 145.633,246.933 141.5,274.5C 139.445,272.445 137.112,270.779 134.5,269.5C 129.833,273.5 125.5,277.833 121.5,282.5C 120.675,283.386 119.675,283.719 118.5,283.5C 123.365,250.908 131.698,219.242 143.5,188.5 Z"/></g>
<g><path style="opacity:1" fill="#989898" d="M 144.5,242.5 C 143.076,244.515 142.41,246.848 142.5,249.5C 141.626,255.629 140.293,261.629 138.5,267.5C 137.167,266.5 135.833,265.5 134.5,264.5C 130.148,268.019 126.314,272.019 123,276.5C 122.833,275.5 122.667,274.5 122.5,273.5C 128.293,246.32 135.626,219.654 144.5,193.5C 150.564,194.076 156.564,195.076 162.5,196.5C 158.352,206.134 154.185,215.801 150,225.5C 147.66,231.019 145.827,236.685 144.5,242.5 Z"/></g>
<g><path style="opacity:0.805" fill="#0b0b0b" d="M 183.5,197.5 C 227.509,207.998 271.509,208.165 315.5,198C 318.63,206.432 321.63,214.932 324.5,223.5C 302.696,230.768 280.696,237.434 258.5,243.5C 258.167,243.833 257.833,244.167 257.5,244.5C 259.043,248.461 260.376,252.461 261.5,256.5C 266.892,255.485 272.226,254.152 277.5,252.5C 280.278,255.097 283.278,257.597 286.5,260C 302.197,264.523 310.197,258.856 310.5,243C 316.706,240.699 323.039,238.865 329.5,237.5C 333.759,251.945 338.426,266.278 343.5,280.5C 331.178,292.655 318.678,304.655 306,316.5C 300.455,307.913 295.288,299.08 290.5,290C 262.827,289.167 235.161,289.333 207.5,290.5C 202.92,299.328 198.087,307.995 193,316.5C 180.322,304.655 167.822,292.655 155.5,280.5C 160.574,266.278 165.241,251.945 169.5,237.5C 176.167,239.167 182.833,240.833 189.5,242.5C 188.971,256.933 195.971,263.1 210.5,261C 214.619,258.71 218.286,255.876 221.5,252.5C 226.768,254.15 232.101,255.484 237.5,256.5C 238.253,252.323 239.586,248.323 241.5,244.5C 221.368,237.88 201.034,231.714 180.5,226C 178.221,225.527 176.221,224.527 174.5,223C 177.606,214.515 180.606,206.015 183.5,197.5 Z"/></g>
<g><path style="opacity:1" fill="#575757" d="M 198.5,227.5 C 201.152,227.41 203.485,228.076 205.5,229.5C 202.848,229.59 200.515,228.924 198.5,227.5 Z"/></g>
<g><path style="opacity:1" fill="#999999" d="M 313.5,251.5 C 314.268,249.285 314.935,246.952 315.5,244.5C 319.416,243.188 323.416,242.188 327.5,241.5C 331.371,254.552 335.204,267.552 339,280.5C 328.321,290.513 317.655,300.513 307,310.5C 301.916,302.667 297.082,294.667 292.5,286.5C 278.171,285.833 263.671,285.5 249,285.5C 234.151,285.501 219.651,286.167 205.5,287.5C 201.504,295.497 197.004,303.163 192,310.5C 181.345,300.513 170.679,290.513 160,280.5C 163.118,267.146 167.451,254.146 173,241.5C 176.983,243.216 181.15,244.216 185.5,244.5C 186.89,260.725 195.557,267.225 211.5,264C 215.923,262.057 219.923,259.557 223.5,256.5C 228.4,258.418 233.4,259.585 238.5,260C 241.551,253.737 243.884,247.237 245.5,240.5C 232.091,236.816 218.758,233.15 205.5,229.5C 203.485,228.076 201.152,227.41 198.5,227.5C 192.771,226.314 187.104,224.814 181.5,223C 180.484,222.481 179.818,221.647 179.5,220.5C 181.478,214.938 183.311,209.272 185,203.5C 185.388,202.572 186.055,201.905 187,201.5C 228.321,212.166 269.654,212.166 311,201.5C 312.326,201.755 313.326,202.422 314,203.5C 316.733,209.537 318.567,215.871 319.5,222.5C 297.627,227.885 275.961,234.052 254.5,241C 253.978,241.561 253.645,242.228 253.5,243C 255.807,248.756 257.807,254.59 259.5,260.5C 265.005,259.278 270.505,257.945 276,256.5C 279.207,259.661 283.041,262.161 287.5,264C 296.055,266.036 303.555,264.202 310,258.5C 311.193,256.114 312.36,253.78 313.5,251.5 Z"/></g>
<g><path style="opacity:1" fill="#595959" d="M 315.5,244.5 C 314.935,246.952 314.268,249.285 313.5,251.5C 312.99,248.612 313.656,246.279 315.5,244.5 Z"/></g>
<g><path style="opacity:1" fill="#525252" d="M 144.5,242.5 C 144.59,245.152 143.924,247.485 142.5,249.5C 142.41,246.848 143.076,244.515 144.5,242.5 Z"/></g>
<g><path style="opacity:1" fill="#5e5e5e" d="M 292.5,286.5 C 263.426,286.175 234.426,286.509 205.5,287.5C 219.651,286.167 234.151,285.501 249,285.5C 263.671,285.5 278.171,285.833 292.5,286.5 Z"/></g>
<g><path style="opacity:0.859" fill="#0b0b0b" d="M 140.5,290.5 C 141.873,290.343 143.207,290.51 144.5,291C 162.018,306.686 179.685,322.186 197.5,337.5C 204.752,325.999 211.752,314.332 218.5,302.5C 238.79,301.345 259.123,301.179 279.5,302C 287.044,313.584 294.21,325.417 301,337.5C 319.38,321.614 337.88,305.948 356.5,290.5C 381.173,314.84 405.173,339.84 428.5,365.5C 413.181,366.499 397.848,366.833 382.5,366.5C 387.869,381.578 393.535,396.578 399.5,411.5C 381.167,412.167 362.833,412.833 344.5,413.5C 349.167,421.5 353.833,429.5 358.5,437.5C 355.861,438.356 353.194,438.19 350.5,437C 340.115,433.987 329.781,430.821 319.5,427.5C 296.461,447.874 273.128,467.874 249.5,487.5C 225.872,467.874 202.539,447.874 179.5,427.5C 167.013,431.953 154.346,435.453 141.5,438C 141.167,437.667 140.833,437.333 140.5,437C 145.293,429.249 149.959,421.416 154.5,413.5C 140.486,412.201 126.486,412.201 112.5,413.5C 108.153,412.953 103.819,412.286 99.5,411.5C 105.465,396.578 111.131,381.578 116.5,366.5C 101.011,366.983 85.6773,366.483 70.5,365C 94.0381,340.297 117.371,315.464 140.5,290.5 Z M 233.5,319.5 C 244.167,319.5 254.833,319.5 265.5,319.5C 265.666,324.179 265.499,328.845 265,333.5C 254.582,332.513 244.082,332.18 233.5,332.5C 233.5,328.167 233.5,323.833 233.5,319.5 Z"/></g>
<g><path style="opacity:1" fill="#9a9a9a" d="M 141.5,294.5 C 160.623,310.246 179.623,326.246 198.5,342.5C 205.959,330.416 213.292,318.25 220.5,306C 239.833,305.333 259.167,305.333 278.5,306C 285.272,318.583 292.605,330.749 300.5,342.5C 318.872,326.126 337.539,310.126 356.5,294.5C 377.957,317.125 399.624,339.625 421.5,362C 406.837,362.5 392.17,362.667 377.5,362.5C 382.97,378.243 388.636,393.91 394.5,409.5C 375.83,409.333 357.164,409.5 338.5,410C 342.707,417.582 347.04,425.082 351.5,432.5C 351,432.833 350.5,433.167 350,433.5C 339.085,429.412 327.918,426.579 316.5,425C 294.315,444.686 271.981,464.186 249.5,483.5C 227.019,464.186 204.685,444.686 182.5,425C 171.11,426.567 159.944,429.4 149,433.5C 148.5,433.167 148,432.833 147.5,432.5C 151.96,425.082 156.293,417.582 160.5,410C 141.836,409.5 123.17,409.333 104.5,409.5C 109.97,393.757 115.636,378.09 121.5,362.5C 106.83,362.667 92.1629,362.5 77.5,362C 99.4342,339.871 120.768,317.371 141.5,294.5 Z M 233.5,319.5 C 233.5,323.833 233.5,328.167 233.5,332.5C 244.082,332.18 254.582,332.513 265,333.5C 265.499,328.845 265.666,324.179 265.5,319.5C 254.833,319.5 244.167,319.5 233.5,319.5 Z"/></g>
<g><path style="opacity:1" fill="#3f3f3f" d="M 268.5,336.5 C 268.5,329.833 268.5,323.167 268.5,316.5C 255.833,316.5 243.167,316.5 230.5,316.5C 230.5,323.167 230.5,329.833 230.5,336.5C 229.509,329.687 229.175,322.687 229.5,315.5C 242.833,315.5 256.167,315.5 269.5,315.5C 269.825,322.687 269.491,329.687 268.5,336.5 Z M 233.5,319.5 C 233.5,323.833 233.5,328.167 233.5,332.5C 244.082,332.18 254.582,332.513 265,333.5C 265.499,328.845 265.666,324.179 265.5,319.5C 254.833,319.5 244.167,319.5 233.5,319.5 Z"/></g>
<g><path style="opacity:0.882" fill="#070707" d="M 268.5,336.5 C 255.833,336.5 243.167,336.5 230.5,336.5C 230.5,329.833 230.5,323.167 230.5,316.5C 243.167,316.5 255.833,316.5 268.5,316.5C 268.5,323.167 268.5,329.833 268.5,336.5 Z M 233.5,319.5 C 233.5,323.833 233.5,328.167 233.5,332.5C 244.082,332.18 254.582,332.513 265,333.5C 265.499,328.845 265.666,324.179 265.5,319.5C 254.833,319.5 244.167,319.5 233.5,319.5 Z"/></g>
</svg>
