<?xml version="1.0" encoding="UTF-8"?>
<svg version="1.1" xmlns="http://www.w3.org/2000/svg" width="512" height="512">
<path d="M0 0 C1.10619186 -0.0071553 2.21238373 -0.01431061 3.35209656 -0.02168274 C5.18097412 -0.02571609 5.18097412 -0.02571609 7.04679871 -0.02983093 C8.32653061 -0.03640213 9.60626251 -0.04297333 10.92477417 -0.04974365 C14.44140196 -0.0671576 17.95801615 -0.07770648 21.47467637 -0.08594918 C23.67145095 -0.09109854 25.86822131 -0.0971743 28.0649929 -0.10346031 C34.93728279 -0.12251356 41.80956192 -0.13674437 48.68187314 -0.14507228 C56.61649002 -0.15484606 64.55082802 -0.1811684 72.48534662 -0.22157317 C78.61705158 -0.25172668 84.74867657 -0.26654041 90.88045424 -0.26985329 C94.54327013 -0.27220469 98.20578815 -0.2811761 101.86852455 -0.30631447 C105.95547179 -0.33391089 110.04179551 -0.32976646 114.12882996 -0.32279968 C115.34200897 -0.33560974 116.55518799 -0.3484198 117.80513 -0.36161804 C126.00600566 -0.31052998 126.00600566 -0.31052998 130.01022339 2.05154419 C132.7165651 5.25272811 133.11610392 7.46802947 133.05226135 11.66645813 C132.48546606 16.86723197 130.60215188 21.74765999 128.92643738 26.67842102 C128.31196243 28.5341272 128.31196243 28.5341272 127.68507385 30.42732239 C126.79814806 33.10581813 125.90389688 35.7817079 125.00367737 38.45576477 C123.58079236 42.68244371 122.17379727 46.91430085 120.76945496 51.14717102 C119.30029308 55.57267139 117.82982631 59.997721 116.35354614 64.42085266 C112.77514772 75.14242586 109.23140954 85.87497717 105.71159363 96.61592102 C105.46789473 97.35955399 105.22419582 98.10318695 104.97311211 98.86935425 C103.77278095 102.53268581 102.57301413 106.19620184 101.37355042 109.8598175 C99.37293095 115.96971389 97.36785578 122.0781474 95.3628788 128.18661499 C93.83562363 132.84004694 92.30880609 137.49362251 90.78190613 142.14717102 C91.38028384 142.14955937 91.97866156 142.15194773 92.59517193 142.15440845 C107.15941298 142.21356127 121.7235052 142.28911313 136.28756237 142.38288593 C143.33066499 142.42783908 150.37371709 142.46725478 157.41691589 142.49360657 C164.21214361 142.51904617 171.00713732 142.55995409 177.80222511 142.61035728 C180.39656597 142.62706093 182.99094572 142.63855335 185.58533287 142.64478493 C189.21514392 142.65438768 192.84437567 142.6824025 196.4740448 142.71479797 C197.55010483 142.71336288 198.62616486 142.7119278 199.73483276 142.71044922 C208.84551206 142.82567938 208.84551206 142.82567938 212.78190613 146.14717102 C215.37554966 149.60536239 215.33195628 152.95303864 214.78190613 157.14717102 C211.3321524 164.48520649 205.09131794 170.59280335 199.80534363 176.65888977 C195.68213243 181.39424123 191.7357353 186.27029717 187.78190613 191.14717102 C180.75181247 199.76169866 173.68344674 208.34452078 166.61247253 216.92549133 C163.66823025 220.49879152 160.72510973 224.0730153 157.78190613 227.64717102 C156.61524517 229.06384239 155.4485785 230.48050905 154.28190613 231.89717102 C153.70440613 232.59842102 153.12690613 233.29967102 152.53190613 234.02217102 C94.78190613 304.14717102 37.03190613 374.27217102 -48.71809387 478.39717102 C-49.29631897 479.09946838 -49.87454407 479.80176575 -50.47029114 480.52534485 C-51.62897107 481.93197808 -52.78830628 483.33807182 -53.94831848 484.74360657 C-56.99296973 488.43446951 -60.0233268 492.13595801 -63.03450012 495.85420227 C-63.97519348 497.01049133 -63.97519348 497.01049133 -64.93489075 498.19013977 C-66.13184851 499.6619545 -67.32481239 501.1370298 -68.51301575 502.61592102 C-75.79269941 511.54497548 -75.79269941 511.54497548 -80.49934387 512.71357727 C-84.88081634 512.70586341 -86.65845003 512.59022239 -90.21809387 509.77217102 C-93.38893778 505.61043838 -93.54257621 503.40835928 -93.21809387 498.14717102 C-92.44696231 494.87276692 -91.38023052 491.71793409 -90.2948761 488.53573608 C-89.98044257 487.58645451 -89.66600904 486.63717295 -89.34204721 485.65912527 C-88.2878911 482.48514449 -87.21882099 479.3163952 -86.1497345 476.14741516 C-85.39022127 473.87085031 -84.63163313 471.59397665 -83.87390137 469.31681824 C-82.02885044 463.77986486 -80.17418595 458.24620094 -78.31524026 452.71389855 C-76.1520989 446.27457276 -74.00086373 439.83129021 -71.85034806 433.38773911 C-68.01516095 421.89748588 -64.17061134 410.41038832 -60.32014465 398.92524719 C-56.58051465 387.77064212 -52.84531292 376.61457044 -49.11604309 365.45649719 C-48.88604443 364.76834028 -48.65604577 364.08018336 -48.41907746 363.37117321 C-47.26523168 359.91877135 -46.11147275 356.46634047 -44.957757 353.01389515 C-35.39132972 324.38714202 -25.80953966 295.76555208 -16.21809387 267.14717102 C-17.07142807 267.15383286 -17.92476227 267.16049469 -18.80395508 267.1673584 C-26.85209805 267.22750934 -34.90016534 267.27316568 -42.94848156 267.30260754 C-47.08605743 267.31825284 -51.2234473 267.33947019 -55.36091614 267.37348938 C-59.35501238 267.40612361 -63.34892989 267.42403258 -67.34314919 267.43180275 C-68.86576971 267.43733899 -70.38838063 267.44815002 -71.91092491 267.46436119 C-74.04632457 267.48619016 -76.18098897 267.48913576 -78.31648254 267.48774719 C-80.13849434 267.49773994 -80.13849434 267.49773994 -81.99731445 267.50793457 C-86.33473014 267.02209519 -88.88195942 265.39115827 -92.03059387 262.45967102 C-94.51700936 257.61770401 -93.43594682 252.34835339 -91.94864273 247.33488178 C-91.35530676 245.51245348 -90.74887937 243.69425436 -90.13197327 241.87966919 C-89.79994424 240.87180774 -89.46791521 239.86394629 -89.12582469 238.82554358 C-88.01333338 235.45856627 -86.88382125 232.09755664 -85.75422668 228.73628235 C-84.95184513 226.3199323 -84.15048931 223.90324143 -83.3500824 221.48623657 C-81.4008549 215.60970309 -79.4404543 209.73700248 -77.47456935 203.86602358 C-75.87700392 199.09415004 -74.28425708 194.32069335 -72.6949234 189.54607201 C-72.46849867 188.86586067 -72.24207394 188.18564934 -72.00878786 187.48482555 C-71.54880409 186.1028887 -71.08883306 184.72094761 -70.62887463 183.33900233 C-66.31849343 170.39023166 -61.9936629 157.4463236 -57.66369781 144.50409069 C-53.94975453 133.40210099 -50.24754085 122.29625806 -46.55403137 111.18745422 C-42.26260272 98.28034603 -37.96444099 85.37551444 -33.65515018 72.47435778 C-33.19560258 71.098515 -32.73606164 69.72266999 -32.2765274 68.34682274 C-32.05043321 67.66991508 -31.82433902 66.99300741 -31.59139349 66.29558739 C-29.99951434 61.52814206 -28.41239933 56.75912633 -26.82707977 51.98949623 C-24.69319338 45.569998 -22.54810844 39.15434755 -20.39544296 32.74111748 C-19.60653611 30.38526171 -18.82120796 28.02820411 -18.03969955 25.66988373 C-16.97352004 22.4544934 -15.89453671 19.24368583 -14.81214905 16.03372192 C-14.35103946 14.62799375 -14.35103946 14.62799375 -13.88061452 13.19386703 C-11.2250426 5.39783472 -8.8650519 0.03925561 0 0 Z M6.78190613 21.14717102 C-2.64826137 49.39361365 -12.07629242 77.64076655 -21.49958187 105.88950437 C-22.61113338 109.22165737 -23.72271102 112.55380165 -24.83430481 115.88594055 C-25.0556103 116.54933241 -25.2769158 117.21272427 -25.50492752 117.89621891 C-29.09217826 128.64925955 -32.68154713 139.40159202 -36.27169406 150.153666 C-39.95323069 161.17959783 -43.63245718 172.20629845 -47.30965519 183.23367798 C-49.3760919 189.43037394 -51.44359435 195.6267098 -53.51359558 201.82221603 C-55.45977398 207.64723049 -57.40317 213.47316555 -59.34438705 219.29983521 C-60.05930884 221.44404794 -60.77526792 223.58791512 -61.49231339 225.73141861 C-62.46722007 228.64626372 -63.43846945 231.56230167 -64.4087677 234.47868347 C-64.69669787 235.33664831 -64.98462805 236.19461315 -65.28128338 237.07857692 C-66.69852285 241.02701123 -66.69852285 241.02701123 -67.21809387 245.14717102 C-66.36475967 245.15303726 -65.51142548 245.1589035 -64.63223267 245.16494751 C-56.58387506 245.22289078 -48.53579448 245.29497686 -40.48770618 245.38288593 C-36.35024787 245.42758213 -32.21288784 245.46683977 -28.07527161 245.49360657 C-24.08098964 245.51964726 -20.08708608 245.5600547 -16.09303856 245.61035728 C-14.57049459 245.6270209 -13.04788517 245.63853835 -11.52526283 245.64478493 C-9.38967502 245.6544319 -7.25505412 245.68249595 -5.1197052 245.71479797 C-3.29769341 245.73145256 -3.29769341 245.73145256 -1.43887329 245.7484436 C2.09506781 246.18593994 3.95928493 247.01059581 6.78190613 249.14717102 C9.28304736 252.89888287 9.20996924 255.80862636 8.78190613 260.14717102 C8.19735404 262.89395349 7.3391658 265.5051219 6.42141724 268.1570282 C6.16753142 268.9219932 5.91364561 269.68695821 5.65206629 270.47510397 C4.80426298 273.01997481 3.93949175 275.55873503 3.07463074 278.09785461 C2.46112417 279.92792548 1.84869972 281.75835941 1.23727417 283.58912659 C-0.07845985 287.52123761 -1.40168467 291.45071686 -2.73080635 295.3783226 C-4.83064256 301.583887 -6.91307269 307.79520489 -8.99310303 314.00743103 C-12.65700787 324.94274878 -16.33545351 335.87313217 -20.01722717 346.80244446 C-25.56762442 363.27897766 -31.10739747 379.75907331 -36.63213915 396.24422705 C-38.70404923 402.42468739 -40.78391375 408.60239699 -42.87001622 414.7780807 C-44.16268646 418.60940247 -45.44929612 422.44273927 -46.73431206 426.27663422 C-47.33356493 428.06018221 -47.93542847 429.84285538 -48.5400238 431.62459946 C-49.36173024 434.04723427 -50.17429572 436.47274416 -50.98458862 438.8992157 C-51.22874026 439.61164944 -51.47289189 440.32408318 -51.72444206 441.05810583 C-53.12085997 444.62737559 -53.12085997 444.62737559 -52.21809387 448.14717102 C-46.33160329 441.65118005 -40.73526715 434.9580263 -35.21809387 428.14717102 C-28.1886406 419.53212679 -21.11963051 410.94981644 -14.04866028 402.36885071 C-11.10441799 398.79555052 -8.16129748 395.22132674 -5.21809387 391.64717102 C-4.05143291 390.23049965 -2.88476624 388.81383299 -1.71809387 387.39717102 C-1.14059387 386.69592102 -0.56309387 385.99467102 0.03190613 385.27217102 C145.28190613 208.89717102 145.28190613 208.89717102 147.03263855 206.7714386 C148.19706929 205.35738252 149.36129519 203.94315773 150.52531433 202.52876282 C153.47451806 198.94572994 156.42743043 195.36586918 159.38737488 191.79170227 C165.04028704 184.95975853 170.66196597 178.10718799 176.15690613 171.14717102 C176.62765564 170.55331604 177.09840515 169.95946106 177.5834198 169.34761047 C179.80442494 167.00357101 179.80442494 167.00357101 180.78190613 164.14717102 C180.21960454 164.14662625 179.65730295 164.14608149 179.07796192 164.14552021 C165.38990785 164.13054672 151.70218339 164.08776102 138.01430988 164.01508045 C131.39488496 163.98077279 124.77569176 163.95569452 118.15617371 163.95161438 C111.76932477 163.94733966 105.38299892 163.91894453 98.9963131 163.87373924 C96.55827568 163.86073795 94.12017575 163.85646581 91.68210793 163.86101723 C88.26989201 163.86590418 84.85921612 163.83991258 81.44718933 163.80659485 C80.43658447 163.81522049 79.42597961 163.82384613 78.38475037 163.83273315 C73.9440528 163.75992658 71.44063806 163.55879555 67.61532593 161.16845703 C64.77850191 156.49366476 65.11224082 152.40317667 66.19281387 147.14928055 C66.73450422 145.16125698 67.36520784 143.22785381 68.03825378 141.2804718 C68.27935285 140.54768477 68.52045191 139.81489775 68.768857 139.05990505 C69.56530111 136.64970397 70.38050058 134.24630763 71.19596863 131.84248352 C71.76508624 130.13242836 72.33297746 128.42196463 72.89971924 126.71112061 C74.10051286 123.09442078 75.30944155 119.48059071 76.52516174 115.86888123 C78.41034643 110.26807623 80.27710414 104.66124642 82.14054871 99.05317688 C84.57716489 91.72452577 87.02030659 84.39809218 89.46891785 77.07344055 C93.21783256 65.85547439 96.929258 54.62562393 100.5967865 43.38075256 C101.45108111 40.76576376 102.31170674 38.15292157 103.17301941 35.54023743 C103.67189062 34.0147939 104.17045138 32.48924879 104.66862488 30.96357727 C104.88914017 30.2988591 105.10965546 29.63414093 105.33685303 28.94927979 C106.22582016 26.20615948 106.78190613 24.05583275 106.78190613 21.14717102 C73.78190613 21.14717102 40.78190613 21.14717102 6.78190613 21.14717102 Z " fill="#000000" transform="translate(195.2180938720703,-0.1471710205078125)"/>
</svg>
